<?xml version="1.0" encoding="utf-8"?>
<!-- Generator: Adobe Illustrator 16.0.0, SVG Export Plug-In . SVG Version: 6.00 Build 0)  -->
<!DOCTYPE svg PUBLIC "-//W3C//DTD SVG 1.1//EN" "http://www.w3.org/Graphics/SVG/1.1/DTD/svg11.dtd">
<svg version="1.1" id="Capa_1" xmlns="http://www.w3.org/2000/svg" xmlns:xlink="http://www.w3.org/1999/xlink" x="0px" y="0px"
	 width="66.786px" height="41.445px" viewBox="0 0 66.786 41.445" enable-background="new 0 0 66.786 41.445" xml:space="preserve">
<g>
	<path fill="#040606" d="M61.757,27.444c-2.202-1.496-4.336-2.195-4.354-2.301l-0.034-0.19c0,0-2.426-15.216-7.645-19.699
		c-6.151-5.16-14.021-5.009-19.754-3.866c-2.613,0.521-2.485,1.183,0.14,1.631c6.367,1.088,12.771,4.122,16.481,5.376
		c2.522,0.853,5.478,2.354,2.83,2.08c-4.702-0.488-19.669-8.102-28.536-7.344c-4.301,0.395-5.373,4.084-5.373,4.084l-3.24,9.175
		c0,0-0.19,0.535-0.427,1.195c-0.234,0.661-2.602,1.384-5.13,2.219c-2.668,0.88-5.473,2.504-5.531,5.528
		c0.367,6.752,32.633,21.145,59.296,12.895C67.305,36.028,66.873,30.917,61.757,27.444z M31.429,25.938
		c-7.424-1.382-12.004-3.516-14.66-5.2c-1.031-0.654-1.442-1.958-0.967-3.084c0.41-0.972,0.811-1.947,1.199-2.928
		c0.252-0.637,0.755-1.143,1.391-1.4c0.636-0.256,1.349-0.24,1.973,0.043c3.19,1.448,7.921,3.318,13.12,4.433
		c5.738,1.231,12.164,0.796,16.186,0.322c1.267-0.149,2.445,0.677,2.732,1.919c0.232,1.004,0.499,2.163,0.727,3.175
		c0.301,1.332-0.522,2.657-1.849,2.981C43.245,28.161,31.429,25.938,31.429,25.938z"/>
</g>
</svg>
